<svg version="1.1" id="Layer_1" xmlns="http://www.w3.org/2000/svg" xmlns:xlink="http://www.w3.org/1999/xlink" x="0px" y="0px"
	 width="100%" viewBox="0 0 1024 1024" enable-background="new 0 0 1024 1024" xml:space="preserve">
<path fill="#000000" opacity="1.000000" stroke="none" 
	d="
M214.299088,764.858093 
	C212.568939,789.442810 206.985550,812.580811 196.890182,834.573914 
	C195.819977,836.905396 195.294937,839.236084 195.322800,841.798523 
	C195.400726,848.963745 194.980316,856.153564 195.428818,863.291443 
	C196.237106,876.155273 194.344101,888.403809 189.171219,900.252930 
	C186.529968,906.303101 184.613647,912.669678 182.188110,919.396851 
	C180.052841,917.509277 180.708923,915.601990 180.705826,913.985352 
	C180.659775,889.987305 180.576202,865.988464 180.751495,841.991638 
	C180.791473,836.518616 179.716446,831.645386 177.342590,826.678467 
	C169.813507,810.924622 162.399933,795.077637 159.254730,777.692261 
	C158.368164,772.791626 157.611740,767.883667 157.621994,762.856812 
	C157.682175,733.359253 157.603653,703.861328 157.710785,674.364075 
	C157.723816,670.777710 157.094269,668.104736 153.861206,665.932129 
	C149.379150,662.920105 147.760162,658.090576 147.730896,652.894409 
	C147.631393,635.229675 147.503708,617.561401 147.754150,599.899719 
	C147.931778,587.374023 157.028687,578.504517 169.511230,578.778503 
	C174.753342,578.893616 176.034378,577.150391 175.844147,572.216370 
	C175.478424,562.731018 175.667892,553.221497 175.755814,543.723267 
	C175.779633,541.148071 175.118515,539.388672 172.692917,538.059875 
	C164.038757,533.319092 160.603806,525.489868 160.761627,516.036621 
	C160.834045,511.697662 159.798386,508.709961 156.093353,505.957184 
	C150.240402,501.608490 147.174255,495.247650 146.736023,487.919342 
	C146.585999,485.410431 145.573410,483.962738 143.609818,482.708252 
	C136.528564,478.184509 133.608871,471.611298 133.613098,463.280243 
	C133.670593,349.955811 133.748001,236.631180 133.515945,123.307205 
	C133.490250,110.759346 141.277756,100.128540 156.413727,99.881638 
	C176.406769,99.555511 196.412140,99.589882 216.406555,99.870781 
	C231.388199,100.081261 239.342590,108.564934 239.348343,123.451241 
	C239.352966,135.450302 239.466568,147.451126 239.283966,159.447388 
	C239.225204,163.307526 240.445038,164.744431 244.419098,164.718140 
	C265.916473,164.575928 287.415466,164.599701 308.913330,164.696503 
	C311.839661,164.709686 313.331879,163.697525 314.553436,161.013535 
	C322.297089,143.999390 339.067047,134.376007 356.412750,136.764191 
	C375.145721,139.343384 388.039307,152.018341 391.284363,171.299164 
	C391.677002,173.631927 392.867432,174.741287 394.687103,175.772263 
	C424.248718,192.521210 453.792053,209.302429 483.344849,226.066940 
	C492.036407,230.997421 500.784424,235.830139 509.417603,240.860352 
	C511.638153,242.154190 513.396423,242.370560 515.864014,241.279419 
	C535.507507,232.593216 555.219360,224.061020 574.947205,215.567261 
	C577.773438,214.350449 579.163940,212.734009 579.903625,209.495682 
	C583.894104,192.025833 596.684998,183.220673 615.451355,184.593353 
	C633.291016,185.898270 642.211426,193.367264 646.568604,208.455353 
	C651.331482,224.948502 644.033630,241.755508 628.538696,248.977539 
	C624.650635,250.789703 623.520447,253.046555 623.759521,257.076263 
	C624.114136,263.056305 623.907288,269.069550 623.942993,275.068665 
	C623.983093,281.806915 624.025452,281.961517 630.870483,282.503113 
	C634.250549,282.770599 637.573730,283.145905 640.286621,285.274963 
	C644.305359,288.428802 646.382324,292.602753 646.353699,297.825226 
	C646.292480,308.990662 646.392334,320.157074 646.322510,331.322388 
	C646.240173,344.487701 638.253845,352.342712 624.975098,352.361816 
	C602.810181,352.393677 580.645203,352.377777 558.480286,352.381805 
	C555.699341,352.382324 552.918396,352.381866 548.997864,352.381866 
	C582.257507,393.707550 614.742615,434.070892 647.561401,474.848846 
	C649.070435,471.794922 648.624084,469.596893 648.626160,467.479370 
	C648.660522,431.482208 648.650330,395.485046 648.660400,359.487854 
	C648.662292,352.703766 648.683044,352.698486 655.591431,352.688446 
	C663.757446,352.676544 671.926514,352.803772 680.088135,352.610840 
	C683.795105,352.523193 685.424805,353.479004 685.417542,357.602844 
	C685.309448,419.264435 685.316589,480.926331 685.402405,542.588013 
	C685.407593,546.337952 684.056213,547.372803 680.453857,547.447266 
	C662.501648,547.818420 662.575562,547.848755 651.707214,533.917969 
	C624.457153,498.989532 597.139893,464.113495 569.823914,429.236542 
	C568.840698,427.981110 568.050354,426.416840 566.281067,425.862061 
	C564.669495,427.707184 565.362183,429.799835 565.359924,431.692810 
	C565.317200,468.023224 565.342590,504.353699 565.336792,540.684143 
	C565.335754,547.339966 565.301270,547.358154 558.817871,547.371277 
	C550.985168,547.387085 543.145081,547.162842 535.322693,547.445129 
	C530.944031,547.603149 529.554077,546.109375 529.581482,541.725952 
	C529.743652,515.729065 529.654602,489.730560 529.653076,463.732605 
	C529.651001,429.235321 529.610840,394.737885 529.712097,360.240906 
	C529.722595,356.645660 529.170471,353.869080 525.800049,351.865601 
	C521.684631,349.419281 519.876770,345.534882 520.848755,340.783142 
	C521.829041,335.990753 525.265869,333.767029 529.826538,332.511688 
	C534.291016,331.282806 538.757568,331.709656 543.225403,331.667725 
	C553.723633,331.569214 564.225098,331.520172 574.721741,331.679504 
	C578.381165,331.735046 579.766663,330.477539 579.702271,326.761597 
	C579.531799,316.932037 579.633789,307.097443 579.651733,297.264923 
	C579.668579,288.033600 583.927795,283.377075 592.987183,282.612854 
	C595.626160,282.390259 598.261780,282.128510 601.694336,281.811218 
	C601.694336,272.124207 601.709717,262.522217 601.681641,252.920303 
	C601.675903,250.955826 600.223450,250.054733 598.684387,249.291138 
	C593.722168,246.829224 588.999023,244.044556 585.683105,239.423721 
	C583.853027,236.873474 581.869324,238.349274 579.942688,239.173737 
	C562.185303,246.772781 544.200012,253.894745 526.771545,262.186432 
	C516.063660,267.280792 507.075500,265.947144 497.189178,260.246155 
	C461.843994,239.864273 426.216858,219.971375 390.692688,199.899994 
	C389.400970,199.170181 388.070740,198.508469 386.317322,197.581879 
	C381.836151,203.740662 376.818878,209.143143 369.946625,212.620392 
	C359.423035,217.945099 348.611725,219.052521 337.617279,214.919846 
	C333.755035,213.468063 331.639557,214.246429 329.061279,217.087997 
	C303.759064,244.973816 278.341431,272.754913 252.958344,300.567291 
	C252.396729,301.182709 251.946274,301.939423 251.291275,302.423676 
	C240.715805,310.242188 238.865051,320.797760 239.076660,333.466492 
	C239.791855,376.284546 239.244797,419.122345 239.430923,461.951508 
	C239.471527,471.294708 236.311584,478.490662 228.320358,483.365448 
	C226.252151,484.627106 225.487686,486.171844 225.264008,488.596863 
	C224.503922,496.837280 220.715576,503.530670 213.762711,508.104523 
	C211.414337,509.649353 210.079987,511.226196 210.321335,514.103577 
	C211.257111,525.260254 207.425156,533.998474 197.247025,539.438782 
	C195.488739,540.378540 195.353134,542.008911 195.354767,543.732788 
	C195.364548,554.065308 195.429123,564.398499 195.317413,574.729858 
	C195.283173,577.895081 196.738586,578.799316 199.596802,578.659546 
	C215.415665,577.885620 224.873703,588.425781 224.398270,604.827637 
	C223.954208,620.146973 224.221436,635.489746 224.337982,650.820984 
	C224.389175,657.556274 222.679092,663.350586 216.858078,667.286743 
	C214.181335,669.096802 214.317337,671.699890 214.318146,674.394775 
	C214.327042,704.388611 214.313217,734.382446 214.299088,764.858093 
M153.347244,256.499908 
	C153.348648,271.993652 153.479507,287.489166 153.268143,302.980011 
	C153.209030,307.311981 154.514511,308.793610 158.944122,308.743958 
	C177.267822,308.538483 195.596207,308.553162 213.920395,308.734985 
	C218.170929,308.777161 219.744522,307.619598 219.734436,303.117859 
	C219.604279,244.974701 219.653061,186.831192 219.634628,128.687759 
	C219.632675,122.541756 218.463028,121.393982 212.329010,121.384415 
	C195.502441,121.358170 178.675812,121.367905 161.849197,121.371338 
	C154.204025,121.372894 153.355087,122.233063 153.353851,130.050034 
	C153.347305,171.866653 153.348984,213.683273 153.347244,256.499908 
M219.649887,387.500092 
	C219.648239,370.013428 219.527924,352.525360 219.730270,335.041046 
	C219.779480,330.787292 218.715485,329.211975 214.176605,329.270081 
	C195.860260,329.504639 177.537552,329.488586 159.220749,329.268402 
	C154.597336,329.212830 153.212372,330.713898 153.259430,335.296844 
	C153.469727,355.779083 153.348831,376.264740 153.349228,396.749146 
	C153.349609,417.233551 153.380859,437.718048 153.328400,458.202332 
	C153.318283,462.158020 154.404861,464.393890 159.013855,464.368683 
	C176.314407,464.273926 193.617203,464.395844 210.917709,464.575348 
	C218.160538,464.650482 219.640564,463.375641 219.645020,455.948822 
	C219.658508,433.465912 219.649734,410.983032 219.649887,387.500092 
M291.532776,225.044342 
	C298.968475,216.963531 306.144623,208.620255 313.943726,200.906891 
	C318.172333,196.724792 314.441864,193.712845 313.733521,190.173630 
	C313.072662,186.871704 310.476562,187.392502 308.204803,187.389648 
	C287.228821,187.363266 266.251801,187.469223 245.277634,187.269272 
	C240.745865,187.226089 239.223633,188.550705 239.255844,193.219223 
	C239.447617,221.019424 239.337341,248.821640 239.389633,276.623077 
	C239.392105,277.936157 238.644806,279.578247 240.563187,280.813843 
	C257.401825,262.376587 274.219574,243.962189 291.532776,225.044342 
M165.350159,629.499878 
	C165.350723,635.498413 165.527893,641.503967 165.289017,647.492981 
	C165.133072,651.402466 166.529999,652.794739 170.468857,652.717407 
	C180.629044,652.517700 190.800247,652.479492 200.957932,652.737122 
	C205.315720,652.847595 206.797470,651.418701 206.730042,647.024109 
	C206.512802,632.864197 206.479034,618.695801 206.744339,604.537537 
	C206.833313,599.788879 204.852463,598.343262 200.570709,598.376038 
	C190.407211,598.453979 180.240982,598.501404 170.079422,598.338379 
	C166.227127,598.276550 165.242111,600.011963 165.305359,603.506958 
	C165.456055,611.835449 165.351959,620.168579 165.350159,629.499878 
M190.557495,810.364502 
	C191.551147,806.170776 192.730377,802.009827 193.477249,797.772583 
	C194.032074,794.624756 194.498291,791.692322 192.184937,788.443115 
	C175.764816,765.380493 173.927582,739.570923 178.837585,712.698364 
	C179.341263,709.941711 180.035019,706.862610 183.047379,704.834351 
	C190.204544,710.828064 192.945007,719.504089 197.654266,728.085266 
	C197.654266,709.659180 197.594238,692.355896 197.704742,675.053589 
	C197.726959,671.576172 196.417282,670.200867 193.001205,670.410156 
	C188.851624,670.664429 184.676575,671.013733 180.538330,670.806641 
	C175.883560,670.573608 174.153671,672.076477 174.186035,677.017334 
	C174.399780,709.640503 174.219894,742.266113 174.393326,774.889771 
	C174.462921,787.978638 179.645020,799.432556 187.035858,809.973389 
	C187.752655,810.995667 188.494766,813.130188 190.557495,810.364502 
M341.325836,194.279297 
	C350.189545,199.591583 357.456024,197.437775 364.317139,192.131378 
	C372.315765,185.945312 373.979950,174.122101 368.399475,165.659760 
	C362.627167,156.906494 351.873505,154.069153 342.621277,158.698837 
	C330.658203,164.684982 325.309662,182.856903 341.325836,194.279297 
M603.834778,331.631500 
	C609.817993,331.625153 615.801147,331.619537 621.784363,331.612183 
	C625.216431,331.607971 627.657532,330.461365 627.656433,326.506866 
	C627.654419,319.360321 627.617920,312.213501 627.669922,305.067352 
	C627.687500,302.651001 626.889282,301.339600 624.230408,301.369690 
	C616.752441,301.454437 609.272522,301.474213 601.794495,301.403717 
	C598.803162,301.375488 598.267761,302.959137 598.304932,305.515472 
	C598.408813,312.660583 598.457825,319.810669 598.297791,326.953644 
	C598.221252,330.370209 599.460510,331.972534 603.834778,331.631500 
M598.445557,218.465897 
	C598.750793,219.752304 598.971558,221.065903 599.375366,222.320572 
	C601.517334,228.976685 608.880188,233.667160 615.221985,232.461975 
	C623.418640,230.904312 628.449524,224.271088 627.732788,215.966461 
	C627.131714,209.002823 620.867188,203.479294 613.420776,203.347382 
	C605.413696,203.205521 601.247253,207.209335 598.445557,218.465897 
M205.112061,486.411835 
	C191.785461,486.411835 178.458878,486.411835 164.964554,486.411835 
	C165.283295,489.104584 166.573380,490.210571 167.784241,491.301880 
	C174.649506,497.489380 197.035065,497.645447 204.065140,491.576599 
	C204.563644,491.146240 205.158005,490.693268 205.394562,490.121277 
	C205.868423,488.975464 207.947937,487.913818 205.112061,486.411835 
z"/>
<path fill="#000000" opacity="1.000000" stroke="none" 
	d="
M438.460083,515.248291 
	C429.037079,534.315247 412.894165,542.917786 393.185852,546.381531 
	C387.236237,547.427185 381.266876,547.388123 375.277985,547.385010 
	C349.447632,547.371582 323.616791,547.286926 297.787445,547.447144 
	C293.325531,547.474792 291.729462,546.270874 291.738983,541.555481 
	C291.861969,480.562866 291.828339,419.569855 291.703064,358.577179 
	C291.694244,354.277802 292.949951,352.738068 297.395721,352.781921 
	C320.891083,353.013702 344.391937,352.777710 367.885132,353.109558 
	C380.838837,353.292542 393.689240,354.222107 406.047119,359.184021 
	C433.229675,370.098419 441.151154,400.724030 430.823151,423.740662 
	C427.183990,431.850769 420.679382,437.212921 412.774689,440.981781 
	C411.574646,441.553925 410.336426,442.046661 409.142670,442.630920 
	C408.884460,442.757263 408.741638,443.119415 408.478607,443.459747 
	C409.887207,445.097961 411.997131,445.109985 413.808044,445.721985 
	C431.609283,451.738251 443.142670,467.880798 443.400177,486.681702 
	C443.533691,496.429016 443.122681,505.985718 438.460083,515.248291 
M362.499939,463.314270 
	C353.679779,463.312988 344.859558,463.331909 336.039551,463.297913 
	C333.474915,463.288025 331.353210,463.596436 331.360046,466.933319 
	C331.390381,481.744324 331.377136,496.555389 331.366211,511.366455 
	C331.364777,513.324829 332.086761,514.651123 334.230042,514.593567 
	C350.997406,514.143494 367.854523,516.132202 384.523438,513.434265 
	C396.547241,511.488220 405.523285,501.258240 405.417908,488.904755 
	C405.322327,477.698547 400.882019,468.059631 386.341034,464.277405 
	C378.804474,462.317139 371.109375,463.749664 362.499939,463.314270 
M377.794830,430.501404 
	C378.268250,430.343353 378.739960,430.179993 379.215332,430.028076 
	C391.362793,426.145752 397.254028,417.999298 396.641602,405.928864 
	C396.126678,395.779877 389.009460,388.189758 376.839966,386.237457 
	C363.481415,384.094421 349.928650,385.874817 336.475891,385.327911 
	C332.535461,385.167725 331.227539,386.640411 331.286224,390.536285 
	C331.466797,402.523376 331.483398,414.517242 331.277710,426.503571 
	C331.208557,430.532440 332.762451,431.734894 336.559906,431.631470 
	C350.024048,431.264771 363.524017,432.346436 377.794830,430.501404 
z"/>
<path fill="#000000" opacity="1.000000" stroke="none" 
	d="
M717.648804,412.999878 
	C717.649231,394.504272 717.790649,376.506836 717.554016,358.514374 
	C717.492859,353.867310 719.025146,352.459534 723.545593,352.597076 
	C732.701416,352.875641 741.876648,352.845947 751.034119,352.590363 
	C755.232483,352.473206 756.439209,353.996552 756.408936,358.069733 
	C756.251587,379.230042 756.456421,400.393311 756.249146,421.552765 
	C756.203308,426.229736 757.978455,427.734344 762.359009,427.720825 
	C787.186035,427.644226 812.013794,427.616974 836.840210,427.763214 
	C841.139771,427.788513 841.703552,425.694794 841.689697,422.185822 
	C841.606323,401.024658 841.792847,379.861328 841.545593,358.702759 
	C841.488037,353.779449 843.104614,352.412476 847.830566,352.589264 
	C856.649414,352.919189 865.494934,352.868011 874.318237,352.604187 
	C878.724060,352.472443 880.421631,353.639496 880.409668,358.430695 
	C880.257141,419.582001 880.261780,480.733917 880.389832,541.885315 
	C880.399353,546.431274 878.771973,547.574524 874.553833,547.457275 
	C865.562988,547.207336 856.553589,547.173462 847.565369,547.466797 
	C843.032410,547.614807 841.522888,546.188538 841.560669,541.557678 
	C841.756531,517.565125 841.540100,493.569214 841.744751,469.576874 
	C841.784607,464.908081 840.638733,463.222839 835.672852,463.270386 
	C811.347717,463.503479 787.017883,463.498108 762.692810,463.256500 
	C757.559692,463.205536 756.197815,464.875244 756.245605,469.858765 
	C756.472168,493.517395 756.346680,517.179504 756.308655,540.840332 
	C756.305481,542.799683 756.718140,544.825562 755.529053,547.315735 
	C744.000916,547.315735 732.226929,547.323853 720.452881,547.307251 
	C718.617371,547.304688 717.758362,546.241638 717.718872,544.466309 
	C717.681763,542.800903 717.651062,541.134888 717.650940,539.469177 
	C717.647644,497.479431 717.648743,455.489655 717.648804,412.999878 
z"/>
<path fill="#000000" opacity="1.000000" stroke="none" 
	d="
M502.330566,507.000061 
	C502.327271,519.164917 502.223969,530.831055 502.378967,542.493774 
	C502.427521,546.148987 501.185638,547.510925 497.477570,547.431885 
	C488.482971,547.240112 479.479065,547.232361 470.484467,547.418823 
	C466.754120,547.496033 465.597534,546.082947 465.604340,542.459351 
	C465.686920,498.466492 465.691162,454.473297 465.598480,410.480438 
	C465.590668,406.774109 466.864075,405.523956 470.521637,405.600037 
	C479.349701,405.783661 488.189301,405.830414 497.013947,405.575317 
	C501.177338,405.454956 502.417816,406.900513 502.400055,411.015350 
	C502.262634,442.843079 502.327850,474.671722 502.330566,507.000061 
z"/>
<path fill="#000000" opacity="1.000000" stroke="none" 
	d="
M290.452271,659.542236 
	C289.099609,650.396362 289.777496,641.566101 289.683685,632.751465 
	C289.554230,620.588196 289.785583,608.420288 289.581299,596.259033 
	C289.511444,592.100830 290.941193,590.674744 295.074036,590.862610 
	C303.052094,591.225159 311.042755,590.807922 319.034882,591.550659 
	C327.097046,592.299988 334.048950,594.865601 336.517090,603.139587 
	C338.801941,610.799255 338.037537,618.340942 330.735291,624.249329 
	C338.489441,629.232178 342.054199,636.008545 339.782715,645.086792 
	C337.543793,654.034912 331.925720,659.587952 322.714447,660.116211 
	C312.106598,660.724548 301.422577,660.914734 290.452271,659.542236 
M307.767151,648.658325 
	C311.424591,648.647766 315.096191,648.836121 318.735931,648.577026 
	C323.426453,648.243225 326.495972,645.471741 327.421631,640.962891 
	C328.314514,636.613831 325.945923,633.384705 322.118500,631.824463 
	C316.097260,629.369812 309.106689,628.862305 303.686737,631.397522 
	C300.077942,633.085510 302.891510,639.666687 302.343323,644.017578 
	C301.916412,647.406067 303.332794,649.074402 307.767151,648.658325 
M324.157013,614.454590 
	C325.381073,606.668518 322.787689,603.180115 315.114288,602.466187 
	C313.143646,602.282776 311.142670,602.371582 309.157166,602.411926 
	C302.830933,602.540283 302.293030,603.023376 302.348450,609.206299 
	C302.454071,620.992004 300.774811,619.515564 313.059052,619.638916 
	C317.283356,619.681335 321.431732,619.506226 324.157013,614.454590 
z"/>
<path fill="#000000" opacity="1.000000" stroke="none" 
	d="
M301.267426,735.001221 
	C301.271912,742.495972 301.041931,749.501709 301.359955,756.482483 
	C301.576111,761.227661 298.980011,761.603882 295.435394,761.377869 
	C292.280487,761.176636 288.631042,762.403992 288.686005,756.825989 
	C288.881287,737.008301 288.823151,717.187500 288.735901,697.368347 
	C288.721161,694.013977 289.805267,692.813660 293.298798,692.550232 
	C298.980133,692.121704 302.791199,693.572449 305.862122,698.883240 
	C312.606232,710.546448 320.060974,721.799927 327.279846,733.186279 
	C328.405823,734.962219 329.258698,736.999390 331.756287,738.655273 
	C331.756287,733.603516 331.757446,729.023804 331.756042,724.444092 
	C331.753601,716.449646 331.745758,708.455261 331.747345,700.460815 
	C331.748810,692.987549 335.000214,690.655518 342.192596,692.768127 
	C344.140930,693.340393 344.296326,694.665894 344.297058,696.194275 
	C344.306793,716.679810 344.287231,737.165283 344.308228,757.650818 
	C344.310730,760.082886 343.381348,761.155396 340.810425,761.393372 
	C335.272797,761.905945 331.410522,760.676697 328.203644,755.274658 
	C320.648682,742.548157 312.207672,730.347107 304.098938,717.950562 
	C303.225037,716.614563 302.607422,715.023499 300.416077,713.924805 
	C301.196442,721.036621 301.334686,727.767700 301.267426,735.001221 
z"/>
<path fill="#000000" opacity="1.000000" stroke="none" 
	d="
M516.252319,646.989624 
	C516.252441,649.320618 516.252197,651.153381 516.251770,652.986145 
	C516.250183,659.929260 512.544678,662.475464 505.921204,660.204651 
	C503.508911,659.377502 503.852814,657.430725 503.836975,655.680664 
	C503.763123,647.517212 503.853638,639.351746 503.725342,631.189514 
	C503.610840,623.906250 500.747986,620.203186 495.587982,620.275330 
	C490.203888,620.350586 487.266663,624.271179 487.217133,631.622253 
	C487.163239,639.619385 487.000153,647.623352 487.255188,655.612488 
	C487.441895,661.460205 483.466614,660.152527 480.142273,660.394714 
	C476.530212,660.657898 474.634888,659.719666 474.755524,655.488586 
	C475.002350,646.833862 474.868103,638.162842 474.682709,629.503052 
	C474.545410,623.088928 471.887024,620.205627 466.700653,620.289062 
	C461.469208,620.373169 458.438080,623.785278 458.371002,629.986206 
	C458.279083,638.482605 458.123047,646.988525 458.426727,655.474915 
	C458.594940,660.175171 456.154022,660.608154 452.550018,660.407288 
	C449.130890,660.216797 445.494965,661.201355 445.606964,655.454712 
	C445.873169,641.797791 445.658844,628.131653 445.668793,614.469238 
	C445.669586,613.341003 445.898407,612.212830 446.010590,611.182495 
	C455.525848,609.452576 456.482758,609.745117 457.884888,615.023499 
	C466.898529,607.273804 475.859222,607.461243 484.725983,615.597839 
	C489.015045,611.152893 494.014069,609.304138 500.082428,609.571411 
	C510.034180,610.009827 515.700195,616.294373 516.182312,628.498779 
	C516.418945,634.487915 516.241821,640.493408 516.252319,646.989624 
z"/>
<path fill="#000000" opacity="1.000000" stroke="none" 
	d="
M291.360718,792.215454 
	C301.293335,791.873413 301.293457,791.873413 301.303314,801.388794 
	C301.308289,806.215637 301.481995,811.050232 301.263702,815.866943 
	C301.091644,819.662903 302.725372,820.799988 306.301880,820.703796 
	C313.121185,820.520325 319.951416,820.533447 326.771912,820.690063 
	C330.385101,820.772949 331.875214,819.468811 331.749481,815.742737 
	C331.541962,809.591370 331.834351,803.423584 331.646851,797.270935 
	C331.530304,793.445007 332.651215,791.587708 336.815674,792.337524 
	C339.056274,792.740906 341.384460,792.657776 343.460999,792.781555 
	C344.651367,794.419739 344.319733,795.965759 344.321381,797.422119 
	C344.343323,816.895996 344.170898,836.372131 344.440826,855.842224 
	C344.510895,860.893616 342.275421,861.540588 338.151123,861.463135 
	C334.273804,861.390259 331.290649,861.347412 331.616028,856.039917 
	C331.992126,849.904663 331.547791,843.723328 331.755798,837.572021 
	C331.884125,833.777710 330.672394,832.110596 326.648621,832.246155 
	C319.832184,832.475586 312.998871,832.438416 306.179626,832.254517 
	C302.474792,832.154663 301.149628,833.606506 301.262146,837.253723 
	C301.451904,843.406128 301.073822,849.580688 301.383606,855.723267 
	C301.601562,860.044556 300.240936,861.996338 295.775482,861.402771 
	C293.667328,861.122437 291.470123,861.777893 289.406555,860.927795 
	C288.330353,859.573608 288.687531,858.017822 288.685547,856.569641 
	C288.658600,836.929321 288.645599,817.288940 288.704987,797.648804 
	C288.710999,795.659180 287.858978,793.107239 291.360718,792.215454 
z"/>
<path fill="#000000" opacity="1.000000" stroke="none" 
	d="
M644.167114,611.882324 
	C652.041199,607.786438 659.598145,608.994751 667.367676,612.137390 
	C669.594849,606.616394 668.261414,601.241943 668.699463,596.038147 
	C668.869263,594.021240 667.726868,591.198975 670.475830,590.371887 
	C673.640076,589.419922 677.080200,589.304443 680.230774,590.669495 
	C681.644226,591.281677 681.281982,592.994263 681.283081,594.285461 
	C681.300110,614.768066 681.297424,635.250732 681.272705,655.733337 
	C681.270569,657.520935 681.587524,659.957214 679.123291,660.097900 
	C675.986328,660.276917 672.474854,661.761292 669.764343,658.715576 
	C669.334656,658.232727 668.978699,657.684326 668.337158,656.832214 
	C662.506653,660.609009 656.319397,662.516541 649.394592,660.836243 
	C636.263123,657.649841 631.562805,643.124573 632.958496,631.832886 
	C633.934937,623.933472 636.234802,616.462585 644.167114,611.882324 
M645.354431,636.335327 
	C645.479553,637.652832 645.443359,639.010132 645.756958,640.281128 
	C647.389343,646.896790 651.308716,650.539734 656.778259,650.660706 
	C663.044373,650.799316 666.955139,647.440735 668.967957,640.427917 
	C670.369812,635.543945 669.643127,630.861511 667.791931,626.325378 
	C665.950684,621.813599 661.995972,619.819702 657.516968,619.573547 
	C653.488831,619.352234 650.234436,621.539673 648.046936,625.038574 
	C646.049927,628.232544 645.198608,631.729858 645.354431,636.335327 
z"/>
<path fill="#000000" opacity="1.000000" stroke="none" 
	d="
M472.701141,861.688232 
	C458.920380,857.613708 454.955109,840.178955 459.059967,826.045959 
	C461.117218,818.962891 465.851440,814.498657 472.707336,811.932007 
	C479.475525,809.398193 485.709442,811.447327 493.022675,814.545410 
	C493.022675,808.092590 493.274841,802.510376 492.949402,796.962036 
	C492.644592,791.764526 495.312805,791.077637 499.651245,790.918701 
	C504.513489,790.740662 505.464111,792.795166 505.424957,797.130737 
	C505.247742,816.769714 505.361450,836.411255 505.322510,856.051697 
	C505.317841,858.419434 506.007111,861.554443 501.993591,861.285950 
	C498.922821,861.080444 494.496826,863.254333 494.229401,856.844788 
	C487.799255,862.193054 480.760864,863.586548 472.701141,861.688232 
M493.668274,835.596924 
	C493.497345,826.384460 489.812469,821.676147 482.556854,821.399536 
	C476.037445,821.151001 471.048706,825.997986 470.365021,833.244995 
	C469.349762,844.006836 472.911041,850.775574 480.097046,851.742004 
	C488.567810,852.881287 493.620056,847.205750 493.668274,835.596924 
z"/>
<path fill="#000000" opacity="1.000000" stroke="none" 
	d="
M538.008179,665.198853 
	C538.017761,668.328613 538.115112,670.996399 538.005005,673.655640 
	C537.913208,675.872681 538.889709,678.865662 536.076416,679.792297 
	C533.281128,680.713196 530.144043,680.593872 527.227295,679.670837 
	C525.929138,679.259949 525.734436,677.973572 525.733826,676.777039 
	C525.722839,654.986450 525.725891,633.195923 525.725891,611.503174 
	C533.294983,609.410034 535.534851,610.040405 537.089905,614.508545 
	C547.815247,607.836426 557.850464,608.051147 565.703064,614.009460 
	C576.174011,621.954468 575.849060,648.330322 566.162781,656.325195 
	C558.683105,662.498840 548.529480,663.048584 538.006042,656.869629 
	C538.006042,659.617676 538.006042,662.175415 538.008179,665.198853 
M550.139832,619.578430 
	C543.083008,620.192566 540.046387,622.905396 538.217651,629.370728 
	C536.938965,633.891541 537.373657,638.226807 538.533325,642.583374 
	C540.628967,650.455750 550.207642,653.486084 556.414490,648.110107 
	C561.245972,643.925354 562.394958,638.198853 561.340759,632.224548 
	C560.285828,626.246155 557.666931,621.143433 550.139832,619.578430 
z"/>
<path fill="#000000" opacity="1.000000" stroke="none" 
	d="
M467.320557,757.758545 
	C457.626526,747.612915 456.287994,729.654663 464.167694,718.789734 
	C469.196167,711.856262 480.777405,708.637878 488.921844,711.867981 
	C490.727722,712.584229 492.291870,714.073364 495.061615,713.646301 
	C496.252563,708.263611 495.315430,702.637939 495.678528,697.104248 
	C495.798615,695.274292 494.752899,692.643127 497.415466,691.999329 
	C500.293640,691.303223 503.411743,691.127747 506.254700,692.228516 
	C507.638062,692.764160 507.315186,694.543274 507.316498,695.837830 
	C507.336914,716.292847 507.339783,736.747864 507.307343,757.202820 
	C507.304810,758.794556 507.621735,761.035583 505.319122,761.131653 
	C501.755157,761.280212 497.515106,763.066956 495.421997,757.858826 
	C486.054535,763.809387 476.789825,765.155029 467.320557,757.758545 
M478.214569,750.558899 
	C487.048828,753.697632 494.025574,750.119812 495.409485,741.422058 
	C495.924469,738.185608 495.974152,734.727417 495.432861,731.505249 
	C494.621582,726.675781 492.056000,722.800964 486.903229,721.527893 
	C481.646606,720.229126 477.029877,722.195496 473.995117,726.789917 
	C469.275238,733.935486 470.897430,744.623047 478.214569,750.558899 
z"/>
<path fill="#000000" opacity="1.000000" stroke="none" 
	d="
M880.300903,644.656921 
	C883.035339,644.801086 885.397278,644.250427 888.217957,645.535889 
	C887.345154,651.637695 884.137329,656.136841 878.591736,658.792419 
	C863.879272,665.837708 842.151550,659.252502 842.562561,636.701355 
	C842.670471,630.778442 843.039734,625.055542 846.103943,619.872192 
	C850.889038,611.778137 861.345886,607.755615 871.872681,609.815430 
	C880.748535,611.552246 887.011169,618.323059 888.223206,628.281250 
	C889.490784,638.695923 892.696533,639.503845 878.678955,639.268616 
	C872.359253,639.162598 866.035828,639.292786 859.715210,639.219666 
	C855.604858,639.172119 854.757629,640.847046 856.413391,644.484070 
	C859.851868,652.036865 869.373657,653.623352 874.915283,647.354614 
	C876.318542,645.767212 877.583618,644.416870 880.300903,644.656921 
M871.966003,629.621155 
	C876.109558,629.672424 876.296936,627.500061 874.797791,624.482422 
	C872.849182,620.559753 868.394043,618.564331 863.898560,619.526611 
	C859.694092,620.426697 857.012329,623.994385 856.910217,629.631775 
	C861.628601,629.631775 866.358887,629.631775 871.966003,629.621155 
z"/>
<path fill="#000000" opacity="1.000000" stroke="none" 
	d="
M602.301392,661.341858 
	C581.669495,656.915222 573.261353,635.385620 585.026550,618.244690 
	C589.907227,611.134094 600.711060,607.531921 610.639404,609.907593 
	C619.612000,612.054626 624.586304,618.276978 626.147644,626.961060 
	C628.865784,642.078918 627.864990,638.956421 615.987793,639.201111 
	C609.990540,639.324707 603.987793,639.158508 597.988708,639.228455 
	C593.267151,639.283508 592.418518,640.764587 594.469482,645.049316 
	C597.354126,651.075623 607.324646,653.716309 611.408325,648.725586 
	C615.746460,643.423950 620.537170,644.703369 625.706360,645.046753 
	C625.285706,655.432129 616.794739,661.346497 602.301392,661.341858 
M612.238831,623.229248 
	C608.352722,619.180176 604.202332,618.184143 599.731506,620.294739 
	C596.039917,622.037537 594.423889,624.938660 594.797058,629.075684 
	C601.381287,629.075684 607.700439,629.075684 613.994934,629.075684 
	C614.147888,626.770508 613.492493,625.268250 612.238831,623.229248 
z"/>
<path fill="#000000" opacity="1.000000" stroke="none" 
	d="
M577.869263,745.685913 
	C579.766418,745.771606 581.238098,745.856506 583.166870,745.967834 
	C583.345337,751.072510 581.080688,754.880981 577.494324,757.607971 
	C569.543945,763.653015 560.651123,764.332031 551.543579,760.627380 
	C542.779541,757.062500 538.611084,749.907532 537.773499,740.825623 
	C537.411377,736.899170 537.291443,732.887756 538.348694,728.916016 
	C541.716187,716.264954 549.799072,710.255249 563.225891,710.659180 
	C574.076660,710.985657 581.189941,717.894531 583.456299,730.308289 
	C585.286560,740.333130 585.286560,740.338196 575.285095,740.347900 
	C567.186340,740.355774 559.087646,740.349487 550.689209,740.349487 
	C550.971802,746.396362 553.025085,750.073730 558.040894,751.901184 
	C562.926758,753.681152 567.110229,752.456543 570.010864,748.447327 
	C572.082886,745.583435 574.600464,745.597778 577.869263,745.685913 
M551.682739,727.221313 
	C551.197571,728.853699 551.261169,730.453979 553.352417,730.508057 
	C559.204346,730.659546 565.085449,731.035461 571.088074,730.272644 
	C570.819031,724.582214 567.969177,721.537842 563.345886,720.653015 
	C558.301025,719.687683 554.280640,721.717468 551.682739,727.221313 
z"/>
<path fill="#000000" opacity="1.000000" stroke="none" 
	d="
M443.329315,714.469604 
	C451.679108,721.168396 452.504303,730.092224 452.255310,740.191284 
	C441.144562,740.191284 430.265564,740.191284 419.278320,740.191284 
	C418.852692,746.010681 421.186066,749.413330 425.644073,751.579834 
	C429.936218,753.665833 434.406769,753.078064 437.052338,749.607300 
	C441.217804,744.142456 446.250183,745.824951 451.918152,746.057129 
	C450.856140,752.570435 447.795471,757.322449 442.216034,759.939819 
	C432.993652,764.265991 423.621216,764.196228 415.277954,758.039185 
	C406.823547,751.799988 404.461792,742.528137 405.987183,732.640137 
	C409.006653,713.066895 425.631622,705.007141 443.329315,714.469604 
M419.904022,727.297302 
	C418.919800,729.893982 420.309998,730.598267 422.551788,730.605835 
	C427.034943,730.620972 431.518280,730.607971 436.001221,730.644287 
	C439.365967,730.671509 440.088989,729.186096 438.742981,726.238220 
	C437.134491,722.715454 434.285461,720.812500 430.621521,720.494568 
	C425.840820,720.079773 422.333313,722.313293 419.904022,727.297302 
z"/>
<path fill="#000000" opacity="1.000000" stroke="none" 
	d="
M366.926941,741.477966 
	C366.997498,746.965027 369.373230,750.462463 374.505463,752.054932 
	C379.473419,753.596558 383.354614,752.051331 386.431366,748.196716 
	C390.060547,743.650085 394.558441,746.365295 398.731140,745.929199 
	C399.114563,753.864563 393.447754,759.939087 384.209106,762.094788 
	C367.558441,765.980103 353.735321,755.038513 353.652771,737.908203 
	C353.580597,722.929565 359.024353,714.664062 371.181885,711.292969 
	C384.845123,707.504272 397.264709,715.665466 399.358948,729.673157 
	C401.288300,742.577515 400.645569,739.998230 389.919250,740.378479 
	C382.323303,740.647705 374.672272,739.415649 366.926941,741.477966 
M385.290466,730.570374 
	C388.830200,729.218567 386.671448,726.864075 385.823486,725.376770 
	C383.662079,721.585754 380.113312,719.897827 375.732635,720.556641 
	C370.903015,721.282898 367.992920,724.644470 367.197266,730.620911 
	C373.010956,730.620911 378.760468,730.620911 385.290466,730.570374 
z"/>
<path fill="#000000" opacity="1.000000" stroke="none" 
	d="
M543.942017,858.197388 
	C531.988831,848.772583 532.785278,827.906433 540.642761,819.016357 
	C547.033752,811.785522 558.031433,809.129272 567.543152,812.566345 
	C575.498169,815.440857 580.994080,823.639709 581.306885,833.303467 
	C581.375366,835.417603 581.753662,837.603088 580.633362,840.289246 
	C570.110291,840.289246 559.382629,840.289246 548.425354,840.289246 
	C547.898193,845.452209 549.366028,848.980896 553.497375,851.145203 
	C557.816589,853.407898 562.736755,854.021423 565.965942,850.256226 
	C570.192505,845.328125 574.938416,846.743469 580.533447,846.977783 
	C579.608032,853.015015 576.626099,857.165039 571.708069,859.716797 
	C562.380493,864.556641 553.156555,863.840698 543.942017,858.197388 
M556.194580,821.403870 
	C551.801697,822.600769 549.303101,825.370361 548.639648,829.901123 
	C553.787109,831.213013 563.871033,831.149048 567.983459,829.886108 
	C567.768677,823.604675 564.874817,821.353882 556.194580,821.403870 
z"/>
<path fill="#000000" opacity="1.000000" stroke="none" 
	d="
M711.667725,619.640625 
	C708.690247,619.584229 706.387268,620.563354 704.492920,622.253540 
	C698.802246,627.330750 698.519165,627.429504 691.066467,624.555603 
	C691.481140,619.134766 693.652588,614.685303 698.750183,612.258118 
	C706.322388,608.652527 714.173584,608.505859 722.008484,611.411621 
	C727.996826,613.632568 731.017395,618.431946 731.224854,624.481995 
	C731.590088,635.134155 731.348755,645.807312 731.348938,656.471680 
	C731.348999,657.458435 731.259216,658.445190 731.189331,659.878540 
	C726.865234,660.273987 722.494385,662.096069 719.191284,657.297180 
	C712.569336,661.721741 705.490723,662.661926 698.111450,660.345215 
	C692.408691,658.554871 688.995605,653.648682 688.677551,647.545227 
	C688.291748,640.141785 690.688416,635.667603 696.677612,632.859741 
	C701.591492,630.556213 706.968628,630.341187 712.226440,629.691772 
	C714.863647,629.366028 718.056213,629.821472 718.635071,626.368164 
	C719.247925,622.711853 716.666016,621.020142 713.452881,620.189514 
	C712.970032,620.064697 712.502991,619.878723 711.667725,619.640625 
M711.470947,651.222107 
	C716.498596,649.487488 718.811035,645.826782 718.929810,640.642639 
	C718.961853,639.243774 718.719482,637.623779 716.932556,637.884644 
	C713.030640,638.454346 708.878479,637.833557 705.271912,639.876648 
	C702.437927,641.481995 700.905151,644.011719 701.464355,647.339600 
	C701.895081,649.902405 703.594849,651.428833 706.251404,651.578857 
	C707.733154,651.662476 709.228882,651.499084 711.470947,651.222107 
z"/>
<path fill="#000000" opacity="1.000000" stroke="none" 
	d="
M462.830170,365.986206 
	C465.714325,350.548035 472.654602,344.273834 485.946106,344.662170 
	C496.887695,344.981812 506.041138,353.869019 506.077148,365.439087 
	C506.110382,376.111938 500.077362,385.252899 487.429352,387.205231 
	C476.194519,388.939392 466.053467,381.852631 463.717438,371.308258 
	C463.358856,369.689789 463.124481,368.043793 462.830170,365.986206 
z"/>
<path fill="#000000" opacity="1.000000" stroke="none" 
	d="
M382.431519,824.649902 
	C376.246643,819.781921 372.048218,820.356506 367.554565,826.359741 
	C365.841858,828.647827 360.163361,829.106079 357.117615,826.996216 
	C354.302063,825.045837 356.258698,822.546204 357.175934,820.788269 
	C361.902344,811.729492 370.425659,811.126343 379.171967,811.705078 
	C386.001953,812.156982 391.904358,814.565247 394.533844,821.607788 
	C395.817291,825.045166 396.186371,828.705933 396.182159,832.385864 
	C396.173767,839.715271 396.286743,847.047119 396.116791,854.372559 
	C396.061859,856.740601 397.859070,859.944824 394.107391,861.211914 
	C390.344116,862.482788 386.363220,861.182068 383.976349,857.903748 
	C378.158539,862.174377 371.805847,864.324707 364.470734,862.310364 
	C358.051575,860.547546 354.039185,855.990051 353.668915,849.573914 
	C353.195129,841.364014 356.203979,836.291199 362.895142,833.656433 
	C368.276917,831.537231 374.012848,831.833069 379.581207,831.040161 
	C383.926331,830.421387 384.538147,828.443970 382.431519,824.649902 
M383.435486,844.781250 
	C384.587189,840.065491 382.267426,838.847473 378.076904,839.376343 
	C375.279388,839.729309 372.469666,840.101379 369.925598,841.332458 
	C366.330200,843.072510 365.471039,846.282959 366.611328,849.744385 
	C367.705383,853.065308 370.715240,854.078064 373.905304,853.480957 
	C378.418121,852.636292 381.815857,850.174255 383.435486,844.781250 
z"/>
<path fill="#000000" opacity="1.000000" stroke="none" 
	d="
M409.361938,654.321167 
	C398.006165,664.187134 381.462524,663.511292 372.943512,653.193359 
	C364.199860,642.603210 364.501740,614.835327 384.369965,610.266296 
	C401.571991,606.310425 415.046661,614.416321 415.399323,633.498047 
	C415.538269,641.014282 414.734100,648.095337 409.361938,654.321167 
M403.643280,634.589172 
	C403.299255,632.469788 403.127686,630.304565 402.578308,628.239807 
	C401.031525,622.426453 396.353821,618.974792 390.911346,619.441833 
	C385.373932,619.917053 381.021606,623.966431 380.474182,629.730530 
	C380.114838,633.514038 380.086700,637.398071 380.506958,641.170532 
	C381.136993,646.826416 385.086273,650.395935 390.302460,650.702820 
	C396.729034,651.080994 400.824463,648.515442 402.446198,642.778503 
	C403.115753,640.409973 403.259735,637.892944 403.643280,634.589172 
z"/>
<path fill="#000000" opacity="1.000000" stroke="none" 
	d="
M745.105774,660.338501 
	C741.328552,660.246460 741.666138,657.818604 741.659912,655.673096 
	C741.637085,647.851379 741.728210,640.028442 741.614746,632.208252 
	C741.542358,627.225708 741.043274,622.247925 741.016602,617.266602 
	C741.003906,614.896851 739.097412,611.156799 743.019592,610.634644 
	C746.682861,610.146851 751.555847,607.927551 753.652466,614.230835 
	C758.795776,610.612000 764.119019,608.098022 770.395386,609.221191 
	C779.725281,610.890869 784.255493,615.027161 785.016296,625.377014 
	C785.853333,636.763977 785.207092,648.259949 785.207092,659.467102 
	C784.547302,659.883972 784.283508,660.186890 783.994080,660.213806 
	C772.864868,661.249512 772.875732,661.246094 772.832153,650.351379 
	C772.804260,643.362244 772.839966,636.370544 772.654663,629.385132 
	C772.514771,624.110718 769.837524,621.147400 765.059875,620.479248 
	C759.760925,619.738159 756.053467,622.142212 754.297363,627.153748 
	C753.043518,630.731995 753.400085,634.380859 753.363586,638.020203 
	C753.315247,642.845886 753.362915,647.672485 753.356262,652.498657 
	C753.345337,660.393188 753.340942,660.393188 745.105774,660.338501 
z"/>
<path fill="#000000" opacity="1.000000" stroke="none" 
	d="
M437.022400,829.231384 
	C434.698303,823.280579 431.780426,821.541626 426.180664,822.466919 
	C421.631836,823.218628 418.544586,826.786804 418.410309,832.087341 
	C418.224701,839.414124 418.355743,846.748718 418.341858,854.080017 
	C418.327789,861.508911 418.322632,861.517517 410.932098,861.368042 
	C409.777924,861.344727 408.626099,861.202637 407.563263,861.122253 
	C406.061523,859.416199 406.704102,857.504456 406.658997,855.740540 
	C406.344025,843.426270 407.259552,831.094849 406.023438,818.784912 
	C405.819824,816.757263 404.506805,813.302185 407.879059,813.006897 
	C411.353821,812.702576 416.002869,810.395386 418.173889,816.252747 
	C422.576294,813.574402 426.974762,811.296265 432.454285,811.517212 
	C442.571777,811.925232 449.023926,817.749939 449.282379,827.994629 
	C449.526062,837.652466 449.164673,847.325378 449.403717,856.983459 
	C449.520264,861.691833 446.678589,861.427307 443.553619,861.398132 
	C440.493744,861.369568 437.602936,861.797852 437.582336,857.056274 
	C437.542664,847.911560 438.266876,838.745728 437.022400,829.231384 
z"/>
<path fill="#000000" opacity="1.000000" stroke="none" 
	d="
M811.000305,609.646729 
	C825.045471,606.892334 835.968872,613.594727 837.037292,625.437561 
	C830.522278,628.076599 827.281006,627.380859 822.759949,622.372742 
	C818.287903,617.418945 810.232666,618.812561 806.966858,625.362610 
	C804.158386,630.995300 804.794006,637.085571 806.134705,642.918091 
	C807.139526,647.289795 810.360474,650.034729 814.985596,650.580017 
	C819.483276,651.110291 822.669678,649.018127 824.787170,645.158997 
	C828.000793,639.302246 832.751648,644.117432 836.698364,642.673584 
	C836.781982,652.320068 828.558411,660.546265 818.779541,661.343933 
	C803.179688,662.616455 792.842834,653.276917 792.648499,637.640015 
	C792.605286,634.156372 792.394104,630.574158 793.074341,627.201477 
	C795.007080,617.619324 800.855408,611.635620 811.000305,609.646729 
z"/>
<path fill="#000000" opacity="1.000000" stroke="none" 
	d="
M517.649048,745.996216 
	C517.649048,729.348816 517.852722,713.196838 517.532715,697.055298 
	C517.428955,691.823792 519.962646,691.535034 523.928711,691.569641 
	C527.806885,691.603577 530.489197,691.681458 530.409302,697.002136 
	C530.114685,716.641602 530.122864,736.290344 530.394287,755.930359 
	C530.465881,761.113525 527.990723,761.470093 523.986755,761.456116 
	C520.037720,761.442383 517.014648,761.228210 517.590454,755.977783 
	C517.933228,752.852478 517.650635,749.658691 517.649048,745.996216 
z"/>
<path fill="#000000" opacity="1.000000" stroke="none" 
	d="
M527.348938,812.000244 
	C527.346313,826.998047 527.068726,841.503540 527.466736,855.990356 
	C527.641968,862.365906 523.759827,861.125183 520.035156,861.452271 
	C515.527344,861.848267 515.462097,859.470520 515.481873,855.969238 
	C515.594788,835.974548 515.558105,815.977478 515.343018,795.983704 
	C515.303406,792.302979 516.323181,790.553772 520.076843,790.990234 
	C523.181946,791.351196 527.610901,789.441284 527.381958,795.504150 
	C527.180847,800.829041 527.345520,806.167664 527.348938,812.000244 
z"/>
<path fill="#000000" opacity="1.000000" stroke="none" 
	d="
M602.685669,830.074097 
	C602.466431,838.946228 602.088318,847.437073 602.404053,855.901978 
	C602.595947,861.047058 600.046753,861.409119 596.018188,861.479187 
	C591.746216,861.553467 589.646301,860.613586 589.744019,855.728882 
	C589.986511,843.591064 589.750244,831.443542 589.697876,819.299927 
	C589.668945,812.591858 589.661682,812.577209 596.197571,812.672668 
	C597.669189,812.694092 599.138672,812.858032 600.724976,812.964172 
	C601.095459,814.600220 601.411499,815.995850 601.829468,817.841614 
	C605.996155,813.585083 610.663391,811.726929 616.319519,813.096497 
	C617.449768,815.186951 616.088013,817.105774 616.315308,819.034851 
	C616.689270,822.208313 615.264832,823.486267 612.011108,823.431152 
	C607.618591,823.356567 604.353882,825.350037 602.685669,830.074097 
z"/>
<path fill="#000000" opacity="1.000000" stroke="none" 
	d="
M360.182739,650.955750 
	C360.185669,651.948120 360.186798,652.446594 360.187897,652.945129 
	C360.204132,660.260193 357.845337,661.986084 350.499573,660.293213 
	C348.386078,659.806152 347.865631,658.483032 347.861725,656.704895 
	C347.830292,642.414856 347.835724,628.124878 347.814056,613.834839 
	C347.810455,611.461975 349.109619,610.634338 351.290039,610.664551 
	C352.784424,610.685303 354.302521,610.761169 355.770935,610.545959 
	C359.412445,610.012024 360.311951,611.698914 360.267517,615.068542 
	C360.112030,626.864685 360.190979,638.663879 360.182739,650.955750 
z"/>
<path fill="#000000" opacity="1.000000" stroke="none" 
	d="
M425.451508,659.861694 
	C423.764709,658.317139 423.864807,656.581421 423.854187,654.952209 
	C423.763092,640.985535 423.723236,627.018555 423.695190,613.051575 
	C423.693939,612.424561 423.953461,611.796936 424.148163,610.912231 
	C427.676147,610.912231 431.092438,610.912231 434.492035,610.912231 
	C435.826172,612.597839 435.315338,614.497986 435.322632,616.263306 
	C435.371399,628.069580 435.349823,639.876282 435.347839,651.682800 
	C435.346283,660.891785 435.344208,660.891785 425.451508,659.861694 
z"/>
<path fill="#000000" opacity="1.000000" stroke="none" 
	d="
M436.052307,595.501343 
	C436.628906,599.469116 436.140839,602.842163 432.273041,604.046387 
	C429.626556,604.870422 426.528229,605.042725 424.472931,602.412231 
	C422.456177,599.831055 422.189026,596.927734 423.937927,594.050232 
	C426.822784,589.303833 432.186401,589.790588 436.052307,595.501343 
z"/>
<path fill="#000000" opacity="1.000000" stroke="none" 
	d="
M350.600098,603.821899 
	C346.805206,601.062256 347.180634,597.537109 348.336761,594.231506 
	C349.223541,591.696045 351.727631,590.695129 354.387268,590.832092 
	C358.242493,591.030701 361.034546,594.256714 360.688721,598.250427 
	C360.342072,602.253723 358.282867,604.666077 353.920258,604.347900 
	C352.939392,604.276367 351.964203,604.126343 350.600098,603.821899 
z"/>
<path fill="#000000" opacity="1.000000" stroke="none" 
	d="
M192.743744,208.259567 
	C180.262390,211.541245 169.362717,205.593170 166.146927,194.063690 
	C163.145767,183.303696 169.553986,172.208954 180.508423,169.199158 
	C190.851715,166.357285 201.852310,171.875015 205.238937,181.603653 
	C209.068100,192.603485 204.237137,203.210922 192.743744,208.259567 
z"/>
</svg>